<svg xmlns="http://www.w3.org/2000/svg" version="1.1" xmlns:xlink="http://www.w3.org/1999/xlink" xmlns:svgjs="http://svgjs.dev/svgjs" viewBox="0 0 1422 800" width="1422" height="800" opacity="0.82"><g transform="scale(1) rotate(30) translate(22 -15) skewX(15) skewY(0)" transform-origin="711 400"><rect width="2844" height="1600" x="-711" y="-400" fill="url(#rrreplicate-pattern1)"></rect><rect width="2844" height="1600" x="-711" y="-400" fill="url(#rrreplicate-pattern2)"></rect><rect width="2844" height="1600" x="-711" y="-400" fill="url(#rrreplicate-pattern3)"></rect></g><defs><pattern id="rrreplicate-pattern1" width="186" height="186" patternUnits="userSpaceOnUse" patternTransform="rotate(49)" stroke-width="2.4" fill="none" stroke="#ad2179" stroke-opacity="0.37">
      <line x1="18.6" y1="0" x2="18.6" y2="186"></line><line x1="55.800000000000004" y1="0" x2="55.800000000000004" y2="186"></line><line x1="93" y1="0" x2="93" y2="186"></line><line x1="130.20000000000002" y1="0" x2="130.20000000000002" y2="186"></line><line x1="167.4" y1="0" x2="167.4" y2="186"></line>
      </pattern><pattern id="rrreplicate-pattern2" width="186" height="186" patternUnits="userSpaceOnUse" patternTransform="rotate(30)" stroke-opacity="0.36" stroke-width="2.4" fill="none" stroke="#238289">
      <line x1="31" y1="0" x2="31" y2="186"></line><line x1="93" y1="0" x2="93" y2="186"></line><line x1="155" y1="0" x2="155" y2="186"></line>
      </pattern><pattern id="rrreplicate-pattern3" width="186" height="186" patternUnits="userSpaceOnUse" patternTransform="rotate(115)" stroke-opacity="0.48" stroke-width="0.8" fill="none" stroke="#0083ff">
      <line x1="31" y1="0" x2="31" y2="186"></line><line x1="93" y1="0" x2="93" y2="186"></line><line x1="155" y1="0" x2="155" y2="186"></line>
      </pattern></defs></svg>